<mxfile host="app.diagrams.net" modified="2023-08-29T00:03:32.406Z" agent="Mozilla/5.0 (X11; Linux x86_64) AppleWebKit/537.36 (KHTML, like Gecko) Chrome/114.0.0.0 Safari/537.36" etag="fIrql5QFRVSkAQU8dltR" version="21.6.9" type="device">
  <diagram name="Page-1" id="KmWS5GeiAf8H9EETdNvA">
    <mxGraphModel dx="2284" dy="770" grid="1" gridSize="10" guides="1" tooltips="1" connect="1" arrows="1" fold="1" page="1" pageScale="1" pageWidth="850" pageHeight="1100" math="0" shadow="0">
      <root>
        <mxCell id="0" />
        <mxCell id="1" parent="0" />
        <mxCell id="sBXXH9Q479u4e7re9SbL-2" value="" style="shape=cylinder3;whiteSpace=wrap;html=1;boundedLbl=1;backgroundOutline=1;size=15;" vertex="1" parent="1">
          <mxGeometry x="650" y="110" width="110" height="140" as="geometry" />
        </mxCell>
        <mxCell id="sBXXH9Q479u4e7re9SbL-1" value="Database" style="rounded=0;whiteSpace=wrap;html=1;strokeColor=none;" vertex="1" parent="1">
          <mxGeometry x="662.5" y="170" width="85" height="30" as="geometry" />
        </mxCell>
        <mxCell id="sBXXH9Q479u4e7re9SbL-3" value="&lt;p style=&quot;line-height: 120%;&quot;&gt;Each Game Played from X date&lt;br&gt;&lt;/p&gt;" style="rounded=0;whiteSpace=wrap;html=1;strokeColor=default;" vertex="1" parent="1">
          <mxGeometry x="780" y="120" width="130" height="60" as="geometry" />
        </mxCell>
        <mxCell id="sBXXH9Q479u4e7re9SbL-5" value="" style="ellipse;shape=cloud;whiteSpace=wrap;html=1;" vertex="1" parent="1">
          <mxGeometry x="-210" y="190" width="230" height="200" as="geometry" />
        </mxCell>
        <mxCell id="sBXXH9Q479u4e7re9SbL-6" value="Online Sites" style="rounded=0;whiteSpace=wrap;html=1;strokeColor=none;" vertex="1" parent="1">
          <mxGeometry x="-145" y="275" width="100" height="30" as="geometry" />
        </mxCell>
        <mxCell id="sBXXH9Q479u4e7re9SbL-7" value="&lt;p style=&quot;line-height: 120%;&quot;&gt;- RetroSheet, Oddshark, Pybaseball, Other Sportsbooks&lt;/p&gt;" style="rounded=0;whiteSpace=wrap;html=1;strokeColor=default;" vertex="1" parent="1">
          <mxGeometry x="-175" y="390" width="160" height="80" as="geometry" />
        </mxCell>
        <mxCell id="sBXXH9Q479u4e7re9SbL-11" style="rounded=0;orthogonalLoop=1;jettySize=auto;html=1;entryX=0;entryY=0.5;entryDx=0;entryDy=0;entryPerimeter=0;" edge="1" parent="1" source="sBXXH9Q479u4e7re9SbL-9" target="sBXXH9Q479u4e7re9SbL-2">
          <mxGeometry relative="1" as="geometry" />
        </mxCell>
        <mxCell id="sBXXH9Q479u4e7re9SbL-9" value="" style="image;points=[];aspect=fixed;html=1;align=center;shadow=0;dashed=0;image=img/lib/allied_telesis/computer_and_terminals/Personal_Computer.svg;" vertex="1" parent="1">
          <mxGeometry x="230" y="190" width="147.57" height="200" as="geometry" />
        </mxCell>
        <mxCell id="sBXXH9Q479u4e7re9SbL-10" value="&lt;p style=&quot;line-height: 120%;&quot;&gt;Each Game Played from X date&lt;br&gt;&lt;/p&gt;" style="rounded=0;whiteSpace=wrap;html=1;strokeColor=default;" vertex="1" parent="1">
          <mxGeometry x="220" y="40" width="130" height="60" as="geometry" />
        </mxCell>
      </root>
    </mxGraphModel>
  </diagram>
</mxfile>
